# xmcd
#
# Track frame offsets:
#	150
#	13290
#	28687
#	42362
#	57447
#	71802
#	88905
#	101260
#	120027
#	133182
#	143572
#	158872
#	181525
#	195150
#	206990
#	221047
#	239257
#	257907
#
# Disc length: 3630
#
# Revision: 2
# Processed by: cddbd v1.5.1PL0 Copyright (c) Steve Scherf et al.
# Submitted via: CDex 1.30Release
# Normalized: r1:DSETVAR1,TDELIM( - )
#
DISCID=010e2c12
DTITLE=Various Artist - nfs 17
DYEAR=1900
DGENRE=Country
TTITLE0=clint beatie - i had to know
TTITLE1=dead ringer band - family man
TTITLE2=tony johns - camping in the barringtons
TTITLE3=craig giles - tired of loving you
TTITLE4=tracy coster - daniel the pioneer
TTITLE5=ernie bridge - 200 years ago
TTITLE6=peter salata - country boy
TTITLE7=shaza leigh - let him down easy
TTITLE8=hot diggety - catfish john
TTITLE9=lance birrel - along the beatn track
TTITLE10=johnny chester - highway 31
TTITLE11=chris lawry - red  dust
TTITLE12=sean o farrell - the way love ought to be
TTITLE13=mary duff - once a day
TTITLE14=daniel o'donnell - welcome home
TTITLE15=betsy - doesn't take much
TTITLE16=john michael montgomery - rope the moon
TTITLE17=alan jackson - summertime blues
EXTD=ID3G:   2
EXTT0=
EXTT1=
EXTT2=
EXTT3=
EXTT4=
EXTT5=
EXTT6=
EXTT7=
EXTT8=
EXTT9=
EXTT10=
EXTT11=
EXTT12=
EXTT13=
EXTT14=
EXTT15=
EXTT16=
EXTT17=
PLAYORDER=
